<?xml version="1.0" encoding="utf-8"?>
<!-- Generator: Adobe Illustrator 16.0.3, SVG Export Plug-In . SVG Version: 6.00 Build 0)  -->
<!DOCTYPE svg PUBLIC "-//W3C//DTD SVG 1.1//EN" "http://www.w3.org/Graphics/SVG/1.1/DTD/svg11.dtd">
<svg version="1.1" id="Layer_1" xmlns="http://www.w3.org/2000/svg" xmlns:xlink="http://www.w3.org/1999/xlink" x="0px" y="0px"
	 width="147px" height="46px" viewBox="0 0 147 46" enable-background="new 0 0 147 46" xml:space="preserve">
<g>
	<g>
		<rect x="8.662" y="11.938" fill="#F2BF7F" width="21.76" height="1.433"/>
		<rect x="39.806" y="11.938" fill="#F2BF7F" width="14.096" height="1.433"/>
		<path fill="#F2BF7F" d="M35.114,17.94c-2.982,0-5.408-2.426-5.408-5.408c0-2.982,2.426-5.409,5.408-5.409
			c2.982,0,5.409,2.426,5.409,5.409C40.522,15.514,38.096,17.94,35.114,17.94z M35.114,8.556c-2.192,0-3.976,1.784-3.976,3.976
			c0,2.192,1.784,3.976,3.976,3.976c2.192,0,3.976-1.784,3.976-3.976C39.09,10.34,37.306,8.556,35.114,8.556z"/>
		<rect x="8.662" y="22.821" fill="#F2BF7F" width="6.554" height="1.433"/>
		<rect x="24.157" y="22.821" fill="#F2BF7F" width="29.746" height="1.433"/>
		<path fill="#F2BF7F" d="M19.649,28.823c-2.982,0-5.408-2.426-5.408-5.409s2.426-5.409,5.408-5.409
			c2.982,0,5.409,2.426,5.409,5.409S22.631,28.823,19.649,28.823z M19.649,19.439c-2.192,0-3.976,1.783-3.976,3.976
			s1.784,3.976,3.976,3.976c2.192,0,3.976-1.784,3.976-3.976S21.841,19.439,19.649,19.439z"/>
		<rect x="8.662" y="33.99" fill="#F2BF7F" width="26.342" height="1.433"/>
		<rect x="44.388" y="33.99" fill="#F2BF7F" width="9.514" height="1.433"/>
		<path fill="#F2BF7F" d="M39.696,39.992c-2.982,0-5.408-2.426-5.408-5.409c0-2.982,2.426-5.408,5.408-5.408
			c2.982,0,5.409,2.426,5.409,5.408C45.104,37.566,42.678,39.992,39.696,39.992z M39.696,30.608c-2.192,0-3.976,1.783-3.976,3.976
			s1.784,3.976,3.976,3.976c2.192,0,3.976-1.784,3.976-3.976S41.888,30.608,39.696,30.608z"/>
	</g>
	
		<text transform="matrix(0.84 0 0 1 53.4067 34.7578)" fill="#F2BF7F" font-family="'RobotoCondensed-Regular'" font-size="31.8771">FILTROS</text>
</g>
</svg>
