<?xml version="1.0" encoding="utf-8"?>
<!-- Generator: Adobe Illustrator 16.0.3, SVG Export Plug-In . SVG Version: 6.00 Build 0)  -->
<!DOCTYPE svg PUBLIC "-//W3C//DTD SVG 1.1//EN" "http://www.w3.org/Graphics/SVG/1.1/DTD/svg11.dtd">
<svg version="1.1" xmlns="http://www.w3.org/2000/svg" xmlns:xlink="http://www.w3.org/1999/xlink" x="0px" y="0px"
	 width="127.472px" height="129.085px" viewBox="0 0 127.472 129.085" enable-background="new 0 0 127.472 129.085"
	 xml:space="preserve">
<g id="BACKGROUND">
</g>
<g id="OBJECTS">
	<g id="XMLID_189_">
		<g id="XMLID_192_">
			<g id="XMLID_198_">
				
					<linearGradient id="XMLID_242_" gradientUnits="userSpaceOnUse" x1="22.6592" y1="-15760.6797" x2="104.8134" y2="-15842.834" gradientTransform="matrix(1 0 0 -1 0 -15737.2148)">
					<stop  offset="0" style="stop-color:#3B579D"/>
					<stop  offset="0.2342" style="stop-color:#4368A5"/>
					<stop  offset="0.6937" style="stop-color:#5993BA"/>
					<stop  offset="1" style="stop-color:#69B3C9"/>
				</linearGradient>
				<path id="XMLID_199_" fill="url(#XMLID_242_)" d="M63.736,122.661c-32.047,0-58.119-26.072-58.119-58.119
					S31.689,6.423,63.736,6.423s58.119,26.072,58.119,58.119S95.783,122.661,63.736,122.661z M63.736,10.423
					c-29.841,0-54.119,24.277-54.119,54.119s24.277,54.119,54.119,54.119s54.119-24.277,54.119-54.119S93.577,10.423,63.736,10.423z
					"/>
			</g>
			<g id="XMLID_193_">
				
					<linearGradient id="XMLID_243_" gradientUnits="userSpaceOnUse" x1="29.1284" y1="-15767.1504" x2="98.3441" y2="-15836.3662" gradientTransform="matrix(1 0 0 -1 0 -15737.2148)">
					<stop  offset="0" style="stop-color:#363689"/>
					<stop  offset="1" style="stop-color:#69B3C9"/>
				</linearGradient>
				<circle id="XMLID_197_" fill="url(#XMLID_243_)" cx="63.736" cy="64.542" r="48.943"/>
				
					<linearGradient id="XMLID_244_" gradientUnits="userSpaceOnUse" x1="20.2188" y1="-15793.7305" x2="77.397" y2="-15850.9092" gradientTransform="matrix(1 0 0 -1 0 -15737.2148)">
					<stop  offset="0" style="stop-color:#363689"/>
					<stop  offset="1" style="stop-color:#69B3C9"/>
				</linearGradient>
				<path id="XMLID_196_" fill="url(#XMLID_244_)" d="M35.44,56.983c-7.4,0-14.385,1.766-20.572,4.883
					c-0.048,0.887-0.076,1.777-0.076,2.676c0,27.031,21.913,48.943,48.943,48.943c5.919,0,11.593-1.051,16.846-2.977
					c0.427-2.512,0.661-5.09,0.661-7.723C81.243,77.489,60.736,56.983,35.44,56.983z"/>
				
					<linearGradient id="XMLID_245_" gradientUnits="userSpaceOnUse" x1="64.8384" y1="-15815.5371" x2="84.7511" y2="-15835.4502" gradientTransform="matrix(1 0 0 -1 0 -15737.2148)">
					<stop  offset="0" style="stop-color:#363689"/>
					<stop  offset="1" style="stop-color:#69B3C9"/>
				</linearGradient>
				<path id="XMLID_195_" fill="url(#XMLID_245_)" d="M41.027,107.897c6.789,3.563,14.51,5.588,22.709,5.588
					c24.432,0,44.679-17.904,48.347-41.307c-7.254-4.82-15.957-7.637-25.319-7.637C62.289,64.542,42.3,83.739,41.027,107.897z"/>
				
					<linearGradient id="XMLID_246_" gradientUnits="userSpaceOnUse" x1="45.0981" y1="-15757.1348" x2="107.4326" y2="-15819.4697" gradientTransform="matrix(1 0 0 -1 0 -15737.2148)">
					<stop  offset="0" style="stop-color:#363689"/>
					<stop  offset="1" style="stop-color:#69B3C9"/>
				</linearGradient>
				<path id="XMLID_194_" fill="url(#XMLID_246_)" d="M63.736,15.6c-6.201,0-12.126,1.164-17.585,3.268
					c-3.309,6.333-5.19,13.532-5.19,21.173c0,25.295,20.507,45.803,45.803,45.803c8.658,0,16.753-2.404,23.659-6.578
					c1.464-4.646,2.257-9.592,2.257-14.723C112.679,37.513,90.766,15.6,63.736,15.6z"/>
			</g>
		</g>
		<path id="XMLID_191_" fill="#FFFFFF" d="M79.025,35.521v9.188h-6.611c-2.256,0-4.086,1.83-4.086,4.088v7.695h10.276l-1.333,10.592
			h-8.944v26.705H57.423V67.013h-8.977V56.491h9.047v-9.248c0-6.709,5.523-12.102,12.23-11.943L79.025,35.521z"/>
	</g>
</g>
<g id="DESIGNED_BY_FREEPIK">
</g>
</svg>
