<?xml version="1.0" encoding="utf-8"?>
<!-- Generator: Adobe Illustrator 16.0.3, SVG Export Plug-In . SVG Version: 6.00 Build 0)  -->
<!DOCTYPE svg PUBLIC "-//W3C//DTD SVG 1.1//EN" "http://www.w3.org/Graphics/SVG/1.1/DTD/svg11.dtd">
<svg version="1.1" xmlns="http://www.w3.org/2000/svg" xmlns:xlink="http://www.w3.org/1999/xlink" x="0px" y="0px"
	 width="127.472px" height="129.085px" viewBox="0 0 127.472 129.085" enable-background="new 0 0 127.472 129.085"
	 xml:space="preserve">
<g id="BACKGROUND">
</g>
<g id="OBJECTS">
	<g id="XMLID_174_">
		<g id="XMLID_176_">
			<g id="XMLID_184_">
				
					<linearGradient id="XMLID_242_" gradientUnits="userSpaceOnUse" x1="29.1284" y1="-15767.1504" x2="98.3441" y2="-15836.3662" gradientTransform="matrix(1 0 0 -1 0 -15737.2148)">
					<stop  offset="0" style="stop-color:#4D81C1"/>
					<stop  offset="1" style="stop-color:#80D8DD"/>
				</linearGradient>
				<circle id="XMLID_188_" fill="url(#XMLID_242_)" cx="63.736" cy="64.543" r="48.943"/>
				
					<linearGradient id="XMLID_243_" gradientUnits="userSpaceOnUse" x1="56.2285" y1="-15798.7012" x2="96.1186" y2="-15838.5908" gradientTransform="matrix(1 0 0 -1 0 -15737.2148)">
					<stop  offset="0" style="stop-color:#4D81C1"/>
					<stop  offset="1" style="stop-color:#80D8DD"/>
				</linearGradient>
				<path id="XMLID_187_" fill="url(#XMLID_243_)" d="M39.667,98.319c0,3.196,0.316,6.317,0.901,9.343
					c6.897,3.714,14.785,5.824,23.167,5.824c27.03,0,48.943-21.912,48.943-48.943c0-3.196-0.316-6.317-0.901-9.343
					c-6.897-3.714-14.785-5.824-23.167-5.824C61.58,49.376,39.667,71.289,39.667,98.319z"/>
				
					<linearGradient id="XMLID_244_" gradientUnits="userSpaceOnUse" x1="35.71" y1="-15760.5859" x2="98.9373" y2="-15823.8135" gradientTransform="matrix(1 0 0 -1 0 -15737.2148)">
					<stop  offset="0" style="stop-color:#4D81C1"/>
					<stop  offset="1" style="stop-color:#80D8DD"/>
				</linearGradient>
				<path id="XMLID_186_" fill="url(#XMLID_244_)" d="M63.736,15.6c-17.324,0-32.533,9.009-41.231,22.588
					c-0.35,2.362-0.537,4.777-0.537,7.237c0,27.03,21.913,48.943,48.943,48.943c17.323,0,32.533-9.009,41.231-22.588
					c0.35-2.362,0.537-4.777,0.537-7.237C112.679,37.513,90.766,15.6,63.736,15.6z"/>
				
					<linearGradient id="XMLID_245_" gradientUnits="userSpaceOnUse" x1="20.0596" y1="-15776.2266" x2="55.957" y2="-15812.124" gradientTransform="matrix(1 0 0 -1 0 -15737.2148)">
					<stop  offset="0" style="stop-color:#4D81C1"/>
					<stop  offset="1" style="stop-color:#80D8DD"/>
				</linearGradient>
				<path id="XMLID_185_" fill="url(#XMLID_245_)" d="M14.792,64.543c0,12.089,4.392,23.146,11.655,31.686
					c20.121-6.076,34.776-24.749,34.776-46.853c0-12.089-4.392-23.146-11.656-31.686C29.447,23.767,14.792,42.44,14.792,64.543z"/>
			</g>
			<g id="XMLID_180_">
				
					<linearGradient id="XMLID_246_" gradientUnits="userSpaceOnUse" x1="22.6597" y1="-15760.6816" x2="104.8132" y2="-15842.835" gradientTransform="matrix(1 0 0 -1 0 -15737.2148)">
					<stop  offset="0" style="stop-color:#4D81C1"/>
					<stop  offset="1" style="stop-color:#80D8DD"/>
				</linearGradient>
				<path id="XMLID_181_" fill="url(#XMLID_246_)" d="M63.736,122.662c-32.047,0-58.119-26.072-58.119-58.119
					S31.689,6.424,63.736,6.424s58.119,26.072,58.119,58.119S95.783,122.662,63.736,122.662z M63.736,10.424
					c-29.841,0-54.119,24.277-54.119,54.119s24.277,54.119,54.119,54.119s54.119-24.277,54.119-54.119S93.577,10.424,63.736,10.424z
					"/>
			</g>
		</g>
		<path id="XMLID_175_" fill="#FFFFFF" d="M91.633,50.172c0.014,0.448,0.023,0.901,0.023,1.354c0,22.867-18.54,41.406-41.406,41.406
			c-8.067,0-15.597-2.309-21.963-6.299c13.859,1.515,20.955-5.97,20.955-5.97c-10.207-0.521-13.02-9.895-13.02-9.895
			c5.73,0.521,6.042-0.417,6.042-0.417c-11.979-3.925-11.069-14.268-11.069-14.268c3.303,2.084,6.068,1.667,6.068,1.667
			c-10.726-9.165-3.971-19.184-3.971-19.184c5.871,8.394,16.799,14.287,29.555,15.138c-0.18-0.94-0.276-1.912-0.276-2.906
			c0-8.211,6.457-14.867,14.422-14.867c4.103,0,7.808,1.766,10.433,4.602c1.839-0.133,5.654-0.746,9.199-3.48
			c0,0-1.144,4.328-5.936,7.774c0,0,2.394,0.636,7.811-1.969C98.501,42.859,95.914,47.497,91.633,50.172z"/>
	</g>
</g>
<g id="DESIGNED_BY_FREEPIK">
</g>
</svg>
