<?xml version="1.0" encoding="utf-8"?>
<!-- Generator: Adobe Illustrator 16.0.3, SVG Export Plug-In . SVG Version: 6.00 Build 0)  -->
<!DOCTYPE svg PUBLIC "-//W3C//DTD SVG 1.1//EN" "http://www.w3.org/Graphics/SVG/1.1/DTD/svg11.dtd">
<svg version="1.1" xmlns="http://www.w3.org/2000/svg" xmlns:xlink="http://www.w3.org/1999/xlink" x="0px" y="0px"
	 width="127.472px" height="129.086px" viewBox="0 0 127.472 129.086" enable-background="new 0 0 127.472 129.086"
	 xml:space="preserve">
<g id="BACKGROUND">
</g>
<g id="OBJECTS">
	<g id="XMLID_171_">
		<g id="XMLID_217_">
			<g id="XMLID_222_">
				
					<linearGradient id="XMLID_242_" gradientUnits="userSpaceOnUse" x1="29.1279" y1="-16061.1348" x2="98.3443" y2="-16130.3516" gradientTransform="matrix(1 0 0 -1 0 -16031.1992)">
					<stop  offset="0" style="stop-color:#71C66D"/>
					<stop  offset="1" style="stop-color:#E8FF56"/>
				</linearGradient>
				<circle id="XMLID_226_" fill="url(#XMLID_242_)" cx="63.736" cy="64.543" r="48.943"/>
				
					<linearGradient id="XMLID_243_" gradientUnits="userSpaceOnUse" x1="54.9028" y1="-16098.0654" x2="92.7641" y2="-16135.9268" gradientTransform="matrix(1 0 0 -1 0 -16031.1992)">
					<stop  offset="0" style="stop-color:#71C66D"/>
					<stop  offset="1" style="stop-color:#E8FF56"/>
				</linearGradient>
				<path id="XMLID_225_" fill="url(#XMLID_243_)" d="M35.075,104.206c8.058,5.832,17.954,9.28,28.66,9.28
					c26.076,0,47.382-20.394,48.855-46.1c-8.058-5.833-17.953-9.28-28.66-9.28C57.854,58.106,36.549,78.5,35.075,104.206z"/>
				
					<linearGradient id="XMLID_244_" gradientUnits="userSpaceOnUse" x1="47.668" y1="-16049.8848" x2="110.1371" y2="-16112.3535" gradientTransform="matrix(1 0 0 -1 0 -16031.1992)">
					<stop  offset="0" style="stop-color:#71C66D"/>
					<stop  offset="1" style="stop-color:#E8FF56"/>
				</linearGradient>
				<path id="XMLID_224_" fill="url(#XMLID_244_)" d="M63.735,15.6c-5.42,0-10.629,0.895-15.503,2.521
					c-2.004,5.346-3.106,11.131-3.106,17.176c0,27.031,21.912,48.943,48.943,48.943c5.42,0,10.629-0.895,15.503-2.521
					c2.004-5.345,3.106-11.131,3.106-17.176C112.679,37.513,90.767,15.6,63.735,15.6z"/>
				
					<linearGradient id="XMLID_245_" gradientUnits="userSpaceOnUse" x1="32.7168" y1="-16057.5449" x2="83.5546" y2="-16108.3828" gradientTransform="matrix(1 0 0 -1 0 -16031.1992)">
					<stop  offset="0" style="stop-color:#71C66D"/>
					<stop  offset="1" style="stop-color:#E8FF56"/>
				</linearGradient>
				<path id="XMLID_223_" fill="url(#XMLID_245_)" d="M101.478,38.986c0-2.05-0.141-4.065-0.385-6.05
					C92.114,22.336,78.715,15.6,63.735,15.6c-27.03,0-48.942,21.913-48.942,48.943c0,2.05,0.141,4.066,0.385,6.05
					C24.156,81.193,37.556,87.93,52.534,87.93C79.565,87.93,101.478,66.018,101.478,38.986z"/>
			</g>
			<g id="XMLID_218_">
				
					<linearGradient id="XMLID_246_" gradientUnits="userSpaceOnUse" x1="22.6592" y1="-16054.666" x2="104.8134" y2="-16136.8203" gradientTransform="matrix(1 0 0 -1 0 -16031.1992)">
					<stop  offset="0" style="stop-color:#71C66D"/>
					<stop  offset="1" style="stop-color:#E8FF56"/>
				</linearGradient>
				<path id="XMLID_219_" fill="url(#XMLID_246_)" d="M63.736,122.662c-32.047,0-58.119-26.072-58.119-58.119
					S31.689,6.424,63.736,6.424s58.118,26.072,58.118,58.119S95.783,122.662,63.736,122.662z M63.736,10.424
					c-29.842,0-54.119,24.277-54.119,54.119c0,29.841,24.277,54.119,54.119,54.119c29.841,0,54.118-24.278,54.118-54.119
					C117.854,34.701,93.577,10.424,63.736,10.424z"/>
			</g>
		</g>
		<g id="XMLID_172_">
			<path id="XMLID_214_" fill="#FFFFFF" d="M64.033,35.888c-15.715,0-28.452,12.737-28.452,28.452c0,5.075,1.328,9.841,3.662,13.969
				l-4.256,15.313l15.323-4.353c4.069,2.243,8.743,3.522,13.723,3.522c15.714,0,28.451-12.737,28.451-28.451
				C92.484,48.625,79.747,35.888,64.033,35.888z M64.033,87.93c-4.915,0-9.482-1.504-13.257-4.08l-8.679,2.538l2.436-8.77
				c-2.586-3.78-4.096-8.353-4.096-13.278c0-13.032,10.563-23.596,23.596-23.596c13.026,0,23.59,10.563,23.59,23.596
				C87.623,77.366,77.06,87.93,64.033,87.93z"/>
			<path id="XMLID_173_" fill-rule="evenodd" clip-rule="evenodd" fill="#FFFFFF" d="M77.105,70.207
				c-0.739-0.355-4.22-2.096-4.866-2.354c-0.71-0.192-1.16-0.354-1.644,0.387c-0.452,0.71-1.838,2.288-2.255,2.739
				c-0.42,0.517-0.84,0.549-1.515,0.226c-0.772-0.354-3.063-1.095-5.77-3.544c-2.16-1.903-3.609-4.19-3.996-4.868
				c-0.387-0.773-0.066-1.095,0.289-1.514c0.354-0.29,0.74-0.773,1.097-1.226c0.096-0.096,0.192-0.193,0.257-0.322
				c0.193-0.29,0.289-0.516,0.451-0.838c0.257-0.483,0.16-0.902-0.064-1.225c-0.129-0.354-1.578-3.899-2.192-5.286
				c-0.579-1.449-1.193-1.192-1.577-1.192c-0.454,0-0.903-0.063-1.387-0.063c-0.518,0-1.258,0.16-1.901,0.902
				c-0.711,0.708-2.547,2.385-2.547,5.93c0,0.806,0.16,1.644,0.419,2.386c0.677,2.546,2.287,4.576,2.515,4.932
				c0.355,0.481,4.931,7.863,12.213,10.699c7.317,2.837,7.317,1.869,8.606,1.773c1.289-0.098,4.222-1.677,4.835-3.385
				c0.58-1.644,0.58-3.062,0.387-3.385C78.299,70.755,77.815,70.528,77.105,70.207L77.105,70.207z"/>
		</g>
	</g>
</g>
<g id="DESIGNED_BY_FREEPIK">
</g>
</svg>
