<?xml version="1.0" encoding="utf-8"?>
<!-- Generator: Adobe Illustrator 16.0.3, SVG Export Plug-In . SVG Version: 6.00 Build 0)  -->
<!DOCTYPE svg PUBLIC "-//W3C//DTD SVG 1.1//EN" "http://www.w3.org/Graphics/SVG/1.1/DTD/svg11.dtd">
<svg version="1.1" xmlns="http://www.w3.org/2000/svg" xmlns:xlink="http://www.w3.org/1999/xlink" x="0px" y="0px"
	 width="127.472px" height="129.085px" viewBox="0 0 127.472 129.085" enable-background="new 0 0 127.472 129.085"
	 xml:space="preserve">
<g id="BACKGROUND">
</g>
<g id="OBJECTS">
	<g id="XMLID_227_">
		<g id="XMLID_231_">
			<g id="XMLID_236_">
				
					<linearGradient id="XMLID_242_" gradientUnits="userSpaceOnUse" x1="29.1284" y1="-16370.1191" x2="98.3448" y2="-16439.3359" gradientTransform="matrix(1 0 0 -1 0 -16340.1836)">
					<stop  offset="0" style="stop-color:#DB2C2C"/>
					<stop  offset="0.2137" style="stop-color:#DD3E34"/>
					<stop  offset="0.6417" style="stop-color:#E26E49"/>
					<stop  offset="1" style="stop-color:#E79A5C"/>
				</linearGradient>
				<circle id="XMLID_240_" fill="url(#XMLID_242_)" cx="63.736" cy="64.542" r="48.944"/>
				
					<linearGradient id="XMLID_243_" gradientUnits="userSpaceOnUse" x1="43.1909" y1="-16395.9336" x2="92.464" y2="-16445.207" gradientTransform="matrix(1 0 0 -1 0 -16340.1836)">
					<stop  offset="0" style="stop-color:#DB2C2C"/>
					<stop  offset="0.2137" style="stop-color:#DD3E34"/>
					<stop  offset="0.6417" style="stop-color:#E26E49"/>
					<stop  offset="1" style="stop-color:#E79A5C"/>
				</linearGradient>
				<path id="XMLID_239_" fill="url(#XMLID_243_)" d="M23.173,91.938c8.798,13.002,23.682,21.548,40.563,21.548
					c25.584,0,46.571-19.633,48.746-44.653c-8.799-13.001-23.683-21.547-40.563-21.547C46.334,47.286,25.348,66.918,23.173,91.938z"
					/>
				
					<linearGradient id="XMLID_244_" gradientUnits="userSpaceOnUse" x1="17.8516" y1="-16381.416" x2="76.4303" y2="-16439.9941" gradientTransform="matrix(1 0 0 -1 0 -16340.1836)">
					<stop  offset="0" style="stop-color:#DB2C2C"/>
					<stop  offset="0.2137" style="stop-color:#DD3E34"/>
					<stop  offset="0.6417" style="stop-color:#E26E49"/>
					<stop  offset="1" style="stop-color:#E79A5C"/>
				</linearGradient>
				<path id="XMLID_238_" fill="url(#XMLID_244_)" d="M31.671,27.583c-10.334,8.974-16.879,22.198-16.879,36.959
					c0,26.653,21.309,48.314,47.817,48.915c10.335-8.974,16.879-22.198,16.879-36.96C79.488,49.845,58.18,28.184,31.671,27.583z"/>
				
					<linearGradient id="XMLID_245_" gradientUnits="userSpaceOnUse" x1="50.9355" y1="-16374.957" x2="106.8239" y2="-16430.8457" gradientTransform="matrix(1 0 0 -1 0 -16340.1836)">
					<stop  offset="0" style="stop-color:#DB2C2C"/>
					<stop  offset="0.2137" style="stop-color:#DD3E34"/>
					<stop  offset="0.6417" style="stop-color:#E26E49"/>
					<stop  offset="1" style="stop-color:#E79A5C"/>
				</linearGradient>
				<path id="XMLID_237_" fill="url(#XMLID_245_)" d="M73.313,16.542C56.637,24.343,45.079,41.263,45.079,60.89
					c0,23.752,16.921,43.547,39.365,48c16.677-7.801,28.235-24.721,28.235-44.348C112.68,40.791,95.758,20.997,73.313,16.542z"/>
			</g>
			<g id="XMLID_232_">
				
					<linearGradient id="XMLID_246_" gradientUnits="userSpaceOnUse" x1="22.6597" y1="-16363.6504" x2="104.8132" y2="-16445.8047" gradientTransform="matrix(1 0 0 -1 0 -16340.1836)">
					<stop  offset="0" style="stop-color:#DB2C2C"/>
					<stop  offset="0.445" style="stop-color:#E05B40"/>
					<stop  offset="1" style="stop-color:#E79A5C"/>
				</linearGradient>
				<path id="XMLID_233_" fill="url(#XMLID_246_)" d="M63.736,122.662c-32.047,0-58.119-26.072-58.119-58.119
					S31.689,6.423,63.736,6.423s58.118,26.072,58.118,58.119S95.783,122.662,63.736,122.662z M63.736,10.423
					c-29.841,0-54.119,24.277-54.119,54.119s24.278,54.119,54.119,54.119c29.841,0,54.118-24.277,54.118-54.119
					S93.577,10.423,63.736,10.423z"/>
			</g>
		</g>
		<path id="XMLID_228_" fill="#FFFFFF" d="M101.387,50.389c-0.238-3.647-1.486-6.672-3.983-8.833
			c-2.493-2.158-6.479-2.542-8.445-2.734c-1.969-0.192-12.624-0.815-25.222-0.815c-12.598,0-23.253,0.623-25.222,0.815
			c-1.966,0.192-5.952,0.576-8.446,2.734c-2.497,2.161-3.745,5.186-3.983,8.833c0,0-0.674,7.277-0.677,14.128v0.049
			c0.003,6.853,0.677,14.13,0.677,14.13c0.238,3.647,1.486,6.672,3.983,8.83c2.494,2.161,6.48,2.546,8.446,2.735
			c1.969,0.192,12.624,0.817,25.222,0.817c12.598,0,23.253-0.625,25.222-0.817c1.966-0.189,5.952-0.574,8.445-2.735
			c2.497-2.158,3.745-5.183,3.983-8.83c0,0,0.675-7.277,0.677-14.13v-0.049C102.062,57.667,101.387,50.389,101.387,50.389z
			 M56.361,76.498V52.823l19.083,11.695L56.361,76.498z"/>
	</g>
</g>
<g id="DESIGNED_BY_FREEPIK">
</g>
</svg>
